<?xml version="1.0" encoding="utf-8"?>
<!DOCTYPE svg PUBLIC "-//W3C//DTD SVG 1.1//EN" "http://www.w3.org/Graphics/SVG/1.1/DTD/svg11.dtd">
<svg version="1.1" id="图形" xmlns="http://www.w3.org/2000/svg" xmlns:xlink="http://www.w3.org/1999/xlink" x="0px" y="0px" width="1024px" height="1024px" viewBox="0 0 1024 1024" enable-background="new 0 0 1024 1024" xml:space="preserve">
  <path fill="#272636" d="M928 684l-832 0c-52.8 0-96-43.2-96-96l0-640c0-52.8 43.2-96 96-96l832 0c52.8 0 96 43.2 96 96l0 640c0 52.8-43.2 96-96 96zM398.74 261.628l-270.74-210.892 0 501.642 270.74-290.75zM176.38 556l671.24 0-335.62-252-335.62 252zM409.288 250.302l102.712-110.302 102.71 110.302 210.554-270.302-626.528 0 210.552 270.302zM625.26 261.628l270.74 290.75 0-501.642-270.74 210.892z" transform="translate(0, 812) scale(1, -1)"/>
</svg>
