<?xml version="1.0" encoding="utf-8"?>
<!DOCTYPE svg PUBLIC "-//W3C//DTD SVG 1.1//EN" "http://www.w3.org/Graphics/SVG/1.1/DTD/svg11.dtd">
<svg version="1.1" id="图形" xmlns="http://www.w3.org/2000/svg" xmlns:xlink="http://www.w3.org/1999/xlink" x="0px" y="0px" width="1024px" height="1024px" viewBox="0 0 1024 1024" enable-background="new 0 0 1024 1024" xml:space="preserve">
  <path fill="#272636" d="M864 812c-88.372 0-160-71.632-160-160l0-480 128 0 0-384 192 0 0 864c0 88.368-71.634 160-160 160zM416 812c-17.676 0-32-14.328-32-32l0-224c0-8.836-14.328-16-32-16-17.676 0-32 7.164-32 16l0 224c0 17.672-14.328 32-32 32-17.674 0-32-14.328-32-32l0-224c0-8.836-14.328-16-32-16-17.674 0-32 7.164-32 16l0 224c0 17.672-14.328 32-32 32-17.674 0-32-14.328-32-32l0-224c0-8.836-14.328-16-32-16s-32 7.164-32 16l0 224c0 17.672-14.328 32-32 32s-32-14.328-32-32l0-288c0-28.318 25.058-44.11 53.004-64 35.21-25.064 74.996-56.636 74.996-128l0-512 192 0 0 512c0 71.364 39.786 102.936 74.992 128 27.946 19.89 53.008 35.682 53.008 64l0 288c0 17.672-14.326 32-32 32z" transform="translate(0, 812) scale(1, -1)"/>
</svg>
