<?xml version="1.0" encoding="utf-8"?>
<!DOCTYPE svg PUBLIC "-//W3C//DTD SVG 1.1//EN" "http://www.w3.org/Graphics/SVG/1.1/DTD/svg11.dtd">
<svg version="1.1" id="图形" xmlns="http://www.w3.org/2000/svg" xmlns:xlink="http://www.w3.org/1999/xlink" x="0px" y="0px" width="1024px" height="1024px" viewBox="0 0 1024 1024" enable-background="new 0 0 1024 1024" xml:space="preserve">
  <path fill="#272636" d="M1024 453.844c0-86.362-37.218-164.03-96.49-217.844l0.49 0-320-320c-32-32-64-64-96-64s-64 32-96 64l-319.51 320c-59.272 53.814-96.49 131.482-96.49 217.844 0 162.458 131.698 294.156 294.156 294.156 86.362 0 164.03-37.218 217.844-96.49 53.814 59.272 131.482 96.49 217.844 96.49 162.456 0 294.156-131.698 294.156-294.156z" transform="translate(0, 812) scale(1, -1)"/>
</svg>
