<?xml version="1.0" encoding="utf-8"?>
<!DOCTYPE svg PUBLIC "-//W3C//DTD SVG 1.1//EN" "http://www.w3.org/Graphics/SVG/1.1/DTD/svg11.dtd">
<svg version="1.1" id="图形" xmlns="http://www.w3.org/2000/svg" xmlns:xlink="http://www.w3.org/1999/xlink" x="0px" y="0px" width="1024px" height="1024px" viewBox="0 0 1024 1024" enable-background="new 0 0 1024 1024" xml:space="preserve">
  <path fill="#272636" d="M961.024 284.64l-410.8288 411.1872c-20.992 21.8112-55.3472 21.8112-76.3392 0l-410.88-411.1872c-21.0432-21.76-13.2096-39.6288 17.408-39.6288l85.6576 0 0-315.8016c0-22.784 0.9728-41.4208 42.1888-41.4208l199.424 0 0 316.8256 208.64 0 0-316.8256 209.3568 0c31.4368 0 32.3072 18.5856 32.3072 41.4208l0 315.8016 85.6064 0c30.5664 0 38.4512 17.8176 17.4592 39.6288z" transform="translate(0, 812) scale(1, -1)"/>
</svg>
