<?xml version="1.0" encoding="utf-8"?>
<!DOCTYPE svg PUBLIC "-//W3C//DTD SVG 1.1//EN" "http://www.w3.org/Graphics/SVG/1.1/DTD/svg11.dtd">
<svg style="width:308px;height:308px;" version="1.1" id="图形" xmlns="http://www.w3.org/2000/svg" xmlns:xlink="http://www.w3.org/1999/xlink" x="0px" y="0px" width="1024px" height="1024px" viewBox="0 0 1024 1024" enable-background="new 0 0 1024 1024" xml:space="preserve">
  <path class="svgpath" data-index="path_0" fill="#272636" d="M967.111111 901.166c0 45.5 23.136 84.908 56.888889 104.184l0 15.938c-9.445333 1.454-19.086222 2.224-28.888889 2.224-60.451556 0-114.976-28.528-153.530667-74.264-23.308444 6.982-48.001778 10.752-73.580444 10.752-141.384889 0-256-114.616-256-256 0-141.384 114.615111-256 256-256 141.384889 0 256 114.616 256 256 0 55.348-17.568 106.592-47.427556 148.466-6.065778 14.824-9.461333 31.312-9.461333 48.7zM455.111111 0c247.518222 0 448.881778 180.614 454.965333 405.52-43.717333-21.92-92.076444-33.52-142.076444-33.52-84.942222 0-165.169778 33.446-225.900444 94.178-62.974222 62.972-97.655111 147.434-97.655111 237.822 0 44.672 8.483556 87.888 24.654222 127.788-4.647111 0.126-9.304889 0.212-13.987556 0.212-24.138667 0-47.831111-1.734-70.954667-5.044-97.758222 109.978-214.444444 129.7-327.267556 132.596l0-26.916c60.920889-33.578 113.777778-94.74 113.777778-164.636 0-9.754-0.673778-19.33-1.923556-28.696-102.929778-76.264-168.743111-192.754-168.743111-323.304 0-229.75 203.76-416 455.111111-416z" />

</svg>
