<?xml version="1.0" encoding="utf-8"?>
<!DOCTYPE svg PUBLIC "-//W3C//DTD SVG 1.1//EN" "http://www.w3.org/Graphics/SVG/1.1/DTD/svg11.dtd">
<svg version="1.1" id="图形" xmlns="http://www.w3.org/2000/svg" xmlns:xlink="http://www.w3.org/1999/xlink" x="0px" y="0px" width="1024px" height="1024px" viewBox="0 0 1024 1024" enable-background="new 0 0 1024 1024" xml:space="preserve">
  <path fill="#272636" d="M717.548 812c-168.764-278.986-302.3-141.782-497.59-342.43-172.336-177.066-112.582-390.306 32.524-463.744 143.23 73.188 289.768 236.822 398.45 473.724 0 0 97.666-299.144-201.49-587.374 145.268-170.148 391.828-51.772 460.726 218.918 74.898 294.274-120.388 593.896-192.62 700.906zM97.012-154.242c0.116-2.906 3.422-57.758 75.366-57.758 52.344 0 317.832 144.678 454.266 520.204-206.438-365.214-506.12-455.838-529.632-462.446z" transform="translate(0, 812) scale(1, -1)"/>
</svg>
