<?xml version="1.0" encoding="utf-8"?>
<!DOCTYPE svg PUBLIC "-//W3C//DTD SVG 1.1//EN" "http://www.w3.org/Graphics/SVG/1.1/DTD/svg11.dtd">
<svg version="1.1" id="图形" xmlns="http://www.w3.org/2000/svg" xmlns:xlink="http://www.w3.org/1999/xlink" x="0px" y="0px" width="1024px" height="1024px" viewBox="0 0 1024 1024" enable-background="new 0 0 1024 1024" xml:space="preserve">
  <path fill="#272636" d="M877.714286 684l0-640q0-28.571429-19.428571-50.857143t-49.142857-34.571429-59.142857-18.285714-55.142857-6-55.142857 6-59.142857 18.285714-49.142857 34.571429-19.428571 50.857143 19.428571 50.857143 49.142857 34.571429 59.142857 18.285714 55.142857 6q60 0 109.714286-22.285714l0 306.857143-438.857143-135.428571 0-405.142857q0-28.571429-19.428571-50.857143t-49.142857-34.571429-59.142857-18.285714-55.142857-6-55.142857 6-59.142857 18.285714-49.142857 34.571429-19.428571 50.857143 19.428571 50.857143 49.142857 34.571429 59.142857 18.285714 55.142857 6q60 0 109.714286-22.285714l0 552.571429q0 17.714286 10.857143 32.285714t28 20.285714l475.428571 146.285714q6.857143 2.285714 16 2.285714 22.857143 0 38.857143-16t16-38.857143z" transform="translate(0, 812) scale(1, -1)"/>
</svg>
