<?xml version="1.0" encoding="utf-8"?>
<!DOCTYPE svg PUBLIC "-//W3C//DTD SVG 1.1//EN" "http://www.w3.org/Graphics/SVG/1.1/DTD/svg11.dtd">
<svg version="1.1" id="图形" xmlns="http://www.w3.org/2000/svg" xmlns:xlink="http://www.w3.org/1999/xlink" x="0px" y="0px" width="1024px" height="1024px" viewBox="0 0 1024 1024" enable-background="new 0 0 1024 1024" xml:space="preserve">
  <path fill="#272636" d="M512 812c-278.748 0-505.458-222.762-511.848-499.974 5.92 241.864 189.832 435.974 415.848 435.974 229.75 0 416-200.576 416-448 0-53.02 42.98-96 96-96 53.02 0 96 42.98 96 96 0 282.77-229.23 512-512 512zM512-212c278.748 0 505.458 222.762 511.848 499.974-5.92-241.864-189.832-435.974-415.848-435.974-229.75 0-416 200.576-416 448 0 53.02-42.98 96-96 96-53.02 0-96-42.98-96-96 0-282.77 229.23-512 512-512z" transform="translate(0, 812) scale(1, -1)"/>
</svg>
