
<svg xmlns="http://www.w3.org/2000/svg" class="si-sprites" style="width:0; height:0; visibility:hidden;">
        
    
    <symbol id="si-envelope" class="si-symbol si-symbol-envelope" viewBox="0 0 1024 1024">
        
         <path fill="#272636" d="M928 684l-832 0c-52.8 0-96-43.2-96-96l0-640c0-52.8 43.2-96 96-96l832 0c52.8 0 96 43.2 96 96l0 640c0 52.8-43.2 96-96 96zM398.74 261.628l-270.74-210.892 0 501.642 270.74-290.75zM176.38 556l671.24 0-335.62-252-335.62 252zM409.288 250.302l102.712-110.302 102.71 110.302 210.554-270.302-626.528 0 210.552 270.302zM625.26 261.628l270.74 290.75 0-501.642-270.74 210.892z" transform="translate(0, 812) scale(1, -1)"/> 
    </symbol>
    
    <symbol id="si-food" class="si-symbol si-symbol-food" viewBox="0 0 1024 1024">
        
         <path fill="#272636" d="M864 812c-88.372 0-160-71.632-160-160l0-480 128 0 0-384 192 0 0 864c0 88.368-71.634 160-160 160zM416 812c-17.676 0-32-14.328-32-32l0-224c0-8.836-14.328-16-32-16-17.676 0-32 7.164-32 16l0 224c0 17.672-14.328 32-32 32-17.674 0-32-14.328-32-32l0-224c0-8.836-14.328-16-32-16-17.674 0-32 7.164-32 16l0 224c0 17.672-14.328 32-32 32-17.674 0-32-14.328-32-32l0-224c0-8.836-14.328-16-32-16s-32 7.164-32 16l0 224c0 17.672-14.328 32-32 32s-32-14.328-32-32l0-288c0-28.318 25.058-44.11 53.004-64 35.21-25.064 74.996-56.636 74.996-128l0-512 192 0 0 512c0 71.364 39.786 102.936 74.992 128 27.946 19.89 53.008 35.682 53.008 64l0 288c0 17.672-14.326 32-32 32z" transform="translate(0, 812) scale(1, -1)"/> 
    </symbol>
    
    <symbol id="si-heart" class="si-symbol si-symbol-heart" viewBox="0 0 1024 1024">
        
         <path fill="#272636" d="M1024 453.844c0-86.362-37.218-164.03-96.49-217.844l0.49 0-320-320c-32-32-64-64-96-64s-64 32-96 64l-319.51 320c-59.272 53.814-96.49 131.482-96.49 217.844 0 162.458 131.698 294.156 294.156 294.156 86.362 0 164.03-37.218 217.844-96.49 53.814 59.272 131.482 96.49 217.844 96.49 162.456 0 294.156-131.698 294.156-294.156z" transform="translate(0, 812) scale(1, -1)"/> 
    </symbol>
    
    <symbol id="si-house" class="si-symbol si-symbol-house" viewBox="0 0 1024 1024">
        
         <path fill="#272636" d="M961.024 284.64l-410.8288 411.1872c-20.992 21.8112-55.3472 21.8112-76.3392 0l-410.88-411.1872c-21.0432-21.76-13.2096-39.6288 17.408-39.6288l85.6576 0 0-315.8016c0-22.784 0.9728-41.4208 42.1888-41.4208l199.424 0 0 316.8256 208.64 0 0-316.8256 209.3568 0c31.4368 0 32.3072 18.5856 32.3072 41.4208l0 315.8016 85.6064 0c30.5664 0 38.4512 17.8176 17.4592 39.6288z" transform="translate(0, 812) scale(1, -1)"/> 
    </symbol>
    
    <symbol id="si-leaf" class="si-symbol si-symbol-leaf" viewBox="0 0 1024 1024">
        
         <path fill="#272636" d="M717.548 812c-168.764-278.986-302.3-141.782-497.59-342.43-172.336-177.066-112.582-390.306 32.524-463.744 143.23 73.188 289.768 236.822 398.45 473.724 0 0 97.666-299.144-201.49-587.374 145.268-170.148 391.828-51.772 460.726 218.918 74.898 294.274-120.388 593.896-192.62 700.906zM97.012-154.242c0.116-2.906 3.422-57.758 75.366-57.758 52.344 0 317.832 144.678 454.266 520.204-206.438-365.214-506.12-455.838-529.632-462.446z" transform="translate(0, 812) scale(1, -1)"/> 
    </symbol>
    
    <symbol id="si-music" class="si-symbol si-symbol-music" viewBox="0 0 1024 1024">
        
         <path fill="#272636" d="M877.714286 684l0-640q0-28.571429-19.428571-50.857143t-49.142857-34.571429-59.142857-18.285714-55.142857-6-55.142857 6-59.142857 18.285714-49.142857 34.571429-19.428571 50.857143 19.428571 50.857143 49.142857 34.571429 59.142857 18.285714 55.142857 6q60 0 109.714286-22.285714l0 306.857143-438.857143-135.428571 0-405.142857q0-28.571429-19.428571-50.857143t-49.142857-34.571429-59.142857-18.285714-55.142857-6-55.142857 6-59.142857 18.285714-49.142857 34.571429-19.428571 50.857143 19.428571 50.857143 49.142857 34.571429 59.142857 18.285714 55.142857 6q60 0 109.714286-22.285714l0 552.571429q0 17.714286 10.857143 32.285714t28 20.285714l475.428571 146.285714q6.857143 2.285714 16 2.285714 22.857143 0 38.857143-16t16-38.857143z" transform="translate(0, 812) scale(1, -1)"/> 
    </symbol>
    
    <symbol id="si-phone" class="si-symbol si-symbol-phone" viewBox="0 0 1024 1024">
        
         <path fill="#272636" d="M574.9248 237.0752c-81.0496-81.1008-174.9504-158.6176-212.0704-121.4464-53.1456 53.0944-85.8624 99.3792-203.008 5.2736s-27.1872-156.8768 24.32-208.384c59.392-59.3408 280.7808-3.1232 499.6608 215.7056 218.7776 218.8288 275.0976 440.2688 215.6544 499.6608-51.456 51.5072-114.176 141.4144-208.3328 24.32s-47.872-149.8624 5.2736-203.008c37.0176-37.1712-40.448-131.0208-121.4976-212.1216z" transform="translate(0, 812) scale(1, -1)"/> 
    </symbol>
    
    <symbol id="si-plus" class="si-symbol si-symbol-plus" viewBox="0 0 1024 1024">
        
         <path fill="#272636" d="M992 428l-352 0 0 352c0 17.672-14.328 32-32 32l-192 0c-17.672 0-32-14.328-32-32l0-352-352 0c-17.672 0-32-14.328-32-32l0-192c0-17.672 14.328-32 32-32l352 0 0-352c0-17.672 14.328-32 32-32l192 0c17.672 0 32 14.328 32 32l0 352 352 0c17.672 0 32 14.328 32 32l0 192c0 17.672-14.328 32-32 32z" transform="translate(0, 812) scale(1, -1)"/> 
    </symbol>
    
    <symbol id="si-spinner" class="si-symbol si-symbol-spinner" viewBox="0 0 1024 1024">
        
         <path fill="#272636" d="M512 812c-278.748 0-505.458-222.762-511.848-499.974 5.92 241.864 189.832 435.974 415.848 435.974 229.75 0 416-200.576 416-448 0-53.02 42.98-96 96-96 53.02 0 96 42.98 96 96 0 282.77-229.23 512-512 512zM512-212c278.748 0 505.458 222.762 511.848 499.974-5.92-241.864-189.832-435.974-415.848-435.974-229.75 0-416 200.576-416 448 0 53.02-42.98 96-96 96-53.02 0-96-42.98-96-96 0-282.77 229.23-512 512-512z" transform="translate(0, 812) scale(1, -1)"/> 
    </symbol>
    
</svg>